<mxfile host="multicloud-diagrams" agent="PIP package multicloud-diagrams. Generate resources in draw.io compatible format for Cloud infrastructure. Copyrights @ Roman Tsypuk 2023. MIT license." type="MultiCloud">
	<diagram id="diagram_1" name="AWS components">
		<mxGraphModel dx="1015" dy="661" grid="1" gridSize="10" guides="1" tooltips="1" connect="1" arrows="1" fold="1" page="1" pageScale="1" pageWidth="850" pageHeight="1100" math="0" shadow="1">
			<root>
				<mxCell id="0"/>
				<mxCell id="1" parent="0"/>
				<mxCell id="vertex:lambda_function:arn:aws:lambda:eu-west-1:123456789012:function:producer-lambda" value="&lt;b&gt;Name&lt;/b&gt;: producer-lambda&lt;BR&gt;&lt;b&gt;ARN&lt;/b&gt;: arn:aws:lambda:eu-west-1:123456789012:function:producer-lambda&lt;BR&gt;-----------&lt;BR&gt;&lt;b&gt;CodeSize&lt;/b&gt;: 1234&lt;BR&gt;&lt;b&gt;Handler&lt;/b&gt;: main&lt;BR&gt;&lt;b&gt;Layers&lt;/b&gt;: 0&lt;BR&gt;&lt;b&gt;Memory&lt;/b&gt;: 128&lt;BR&gt;&lt;b&gt;PackageType&lt;/b&gt;: Zip&lt;BR&gt;&lt;b&gt;Runtime&lt;/b&gt;: go1.x&lt;BR&gt;&lt;b&gt;Timeout&lt;/b&gt;: 30&lt;BR&gt;&lt;b&gt;TracingConfig&lt;/b&gt;: {'Mode': 'Active'}&lt;BR&gt;&lt;b&gt;Version&lt;/b&gt;: $LATEST" style="verticalLabelPosition=bottom;verticalAlign=top;aspect=fixed;align=left;pointerEvents=1;shape=mxgraph.aws3.lambda_function;prIcon=server;fillColor=#F58534;gradientColor=none;html=1;" parent="1" vertex="1">
					<mxGeometry width="69" height="72" as="geometry" x="-40" y="-202"/>
				</mxCell>
				<mxCell id="vertex:lambda_function:arn:aws:lambda:eu-west-1:123456789012:function:consumer-lambda" value="&lt;b&gt;Name&lt;/b&gt;: consumer-lambda&lt;BR&gt;&lt;b&gt;ARN&lt;/b&gt;: arn:aws:lambda:eu-west-1:123456789012:function:consumer-lambda" style="verticalLabelPosition=bottom;verticalAlign=top;aspect=fixed;align=left;pointerEvents=1;shape=mxgraph.aws3.lambda_function;prIcon=server;fillColor=#F58534;gradientColor=none;html=1;" parent="1" vertex="1">
					<mxGeometry width="69" height="72" as="geometry" x="1470" y="-172"/>
				</mxCell>
				<mxCell id="vertex:dynamo:arn:aws:dynamodb:eu-west-1:123456789012:table/table1" value="&lt;b&gt;Name&lt;/b&gt;: table1&lt;BR&gt;&lt;b&gt;ARN&lt;/b&gt;: arn:aws:dynamodb:eu-west-1:123456789012:table/table1" style="outlineConnect=0;dashed=0;verticalLabelPosition=bottom;verticalAlign=top;align=left;html=1;shape=mxgraph.aws3.dynamo_db;fillColor=#2E73B8;gradientColor=none;" parent="1" vertex="1">
					<mxGeometry width="72" height="81" as="geometry" x="1470" y="80"/>
				</mxCell>
				<mxCell id="vertex:sns:arn:aws:sns:eu-west-1:123456789012:internal.fifo" value="&lt;b&gt;Name&lt;/b&gt;: internal&lt;BR&gt;&lt;b&gt;ARN&lt;/b&gt;: arn:aws:sns:eu-west-1:123456789012:internal.fifo&lt;BR&gt;-----------&lt;BR&gt;&lt;b&gt;Owner&lt;/b&gt;: 123456789&lt;BR&gt;&lt;b&gt;SubscriptionsConfirmed&lt;/b&gt;: 3&lt;BR&gt;&lt;b&gt;SubscriptionsPending&lt;/b&gt;: 0" style="sketch=0;outlineConnect=0;gradientColor=#FF4F8B;gradientDirection=north;fillColor=#BC1356;strokeColor=#ffffff;dashed=0;verticalLabelPosition=bottom;verticalAlign=top;align=left;html=1;fontSize=12;fontStyle=0;aspect=fixed;shape=mxgraph.aws4.resourceIcon;resIcon=mxgraph.aws4.sns;" parent="1" vertex="1">
					<mxGeometry width="78" height="78" as="geometry" x="530" y="-470"/>
				</mxCell>
				<mxCell id="vertex:sqs:arn:aws:sqs:eu-west-1:123456789012:int-eu-live-events.fifo" value="&lt;b&gt;Name&lt;/b&gt;: events&lt;BR&gt;&lt;b&gt;ARN&lt;/b&gt;: arn:aws:sqs:eu-west-1:123456789012:int-eu-live-events.fifo&lt;BR&gt;-----------&lt;BR&gt;&lt;b&gt;DelaySeconds&lt;/b&gt;: 0&lt;BR&gt;&lt;b&gt;FifoQueue&lt;/b&gt;: TRUE&lt;BR&gt;&lt;b&gt;ReceiveMessageWaitTimeSeconds&lt;/b&gt;: 0&lt;BR&gt;&lt;b&gt;SqsManagedSseEnabled&lt;/b&gt;: false&lt;BR&gt;&lt;b&gt;VisibilityTimeout&lt;/b&gt;: 30" style="sketch=0;outlineConnect=0;gradientColor=#FF4F8B;gradientDirection=north;fillColor=#BC1356;strokeColor=#ffffff;dashed=0;verticalLabelPosition=bottom;verticalAlign=top;align=left;html=1;fontSize=12;fontStyle=0;aspect=fixed;shape=mxgraph.aws4.resourceIcon;resIcon=mxgraph.aws4.sqs;" parent="1" vertex="1">
					<mxGeometry width="78" height="78" as="geometry" x="1060" y="-80"/>
				</mxCell>
				<mxCell id="vertex:sqs:arn:aws:sqs:eu-west-1:123456789012:int-eu-live-events2.fifo" value="&lt;b&gt;Name&lt;/b&gt;: events2&lt;BR&gt;&lt;b&gt;ARN&lt;/b&gt;: arn:aws:sqs:eu-west-1:123456789012:int-eu-live-events2.fifo" style="sketch=0;outlineConnect=0;gradientColor=#FF4F8B;gradientDirection=north;fillColor=#BC1356;strokeColor=#ffffff;dashed=0;verticalLabelPosition=bottom;verticalAlign=top;align=left;html=1;fontSize=12;fontStyle=0;aspect=fixed;shape=mxgraph.aws4.resourceIcon;resIcon=mxgraph.aws4.sqs;" parent="1" vertex="1">
					<mxGeometry width="78" height="78" as="geometry" x="1060" y="-589"/>
				</mxCell>
				<mxCell id="vertex:s3:arn:aws:s3:::bucket_name/key_name" value="&lt;b&gt;Name&lt;/b&gt;: key_name&lt;BR&gt;&lt;b&gt;ARN&lt;/b&gt;: arn:aws:s3:::bucket_name/key_name" style="outlineConnect=0;dashed=0;verticalLabelPosition=bottom;verticalAlign=top;align=left;html=1;shape=mxgraph.aws3.bucket_with_objects;fillColor=#E05243;gradientColor=none;" parent="1" vertex="1">
					<mxGeometry width="78" height="78" as="geometry" x="550" y="60"/>
				</mxCell>
				<mxCell id="edge:lambda_function:arn:aws:lambda:eu-west-1:123456789012:function:producer-lambda:to:sns:arn:aws:sns:eu-west-1:123456789012:internal.fifo" style="jettySize=auto;html=1;startArrow=none;endArrow=none;" parent="1" source="vertex:lambda_function:arn:aws:lambda:eu-west-1:123456789012:function:producer-lambda" target="vertex:sns:arn:aws:sns:eu-west-1:123456789012:internal.fifo" edge="2">
					<mxGeometry as="geometry"/>
				</mxCell>
				<mxCell id="edge:lambda_function:arn:aws:lambda:eu-west-1:123456789012:function:producer-lambda:to:s3:arn:aws:s3:::bucket_name/key_name" style="jettySize=auto;html=1;startArrow=none;endArrow=none;" parent="1" source="vertex:lambda_function:arn:aws:lambda:eu-west-1:123456789012:function:producer-lambda" target="vertex:s3:arn:aws:s3:::bucket_name/key_name" edge="2">
					<mxGeometry as="geometry"/>
				</mxCell>
				<mxCell id="edge:sns:arn:aws:sns:eu-west-1:123456789012:internal.fifo:to:sqs:arn:aws:sqs:eu-west-1:123456789012:int-eu-live-events.fifo" style="jettySize=auto;html=1;startArrow=none;endArrow=none;" parent="1" source="vertex:sns:arn:aws:sns:eu-west-1:123456789012:internal.fifo" target="vertex:sqs:arn:aws:sqs:eu-west-1:123456789012:int-eu-live-events.fifo" edge="2">
					<mxGeometry as="geometry"/>
				</mxCell>
				<mxCell id="edge:sns:arn:aws:sns:eu-west-1:123456789012:internal.fifo:to:sqs:arn:aws:sqs:eu-west-1:123456789012:int-eu-live-events2.fifo" style="jettySize=auto;html=1;startArrow=none;endArrow=none;" parent="1" source="vertex:sns:arn:aws:sns:eu-west-1:123456789012:internal.fifo" target="vertex:sqs:arn:aws:sqs:eu-west-1:123456789012:int-eu-live-events2.fifo" edge="2">
					<mxGeometry as="geometry"/>
				</mxCell>
				<mxCell id="edge:sqs:arn:aws:sqs:eu-west-1:123456789012:int-eu-live-events.fifo:to:lambda_function:arn:aws:lambda:eu-west-1:123456789012:function:consumer-lambda" style="jettySize=auto;html=1;startArrow=none;endArrow=none;" parent="1" source="vertex:sqs:arn:aws:sqs:eu-west-1:123456789012:int-eu-live-events.fifo" target="vertex:lambda_function:arn:aws:lambda:eu-west-1:123456789012:function:consumer-lambda" edge="2">
					<mxGeometry as="geometry"/>
				</mxCell>
				<mxCell id="edge:lambda_function:arn:aws:lambda:eu-west-1:123456789012:function:consumer-lambda:to:dynamo:arn:aws:dynamodb:eu-west-1:123456789012:table/table1" style="jettySize=auto;html=1;startArrow=none;endArrow=none;" parent="1" source="vertex:lambda_function:arn:aws:lambda:eu-west-1:123456789012:function:consumer-lambda" target="vertex:dynamo:arn:aws:dynamodb:eu-west-1:123456789012:table/table1" edge="2">
					<mxGeometry as="geometry"/>
				</mxCell>
				<mxCell id="2" parent="0" value="same_entity_diff_elements"/>
				<mxCell id="3" parent="0" value="actors"/>
				<mxCell id="vertex:actor:5991ce42" value="&lt;b&gt;Name&lt;/b&gt;: Donald" style="shape=umlActor;verticalLabelPosition=bottom;verticalAlign=top;html=1;outlineConnect=0;" parent="3" vertex="1">
					<mxGeometry width="30" height="60" as="geometry" x="-560" y="-400"/>
				</mxCell>
				<mxCell id="edge_same_entity_diff_elements_1:actor:5991ce42:to:lambda_function:arn:aws:lambda:eu-west-1:123456789012:function:producer-lambda" style="jettySize=auto;html=1;orthogonalLoop=1;edgeStyle=orthogonalEdgeStyle;curved=1;startArrow=oval;endArrow=classicThin;dashed=1;strokeColor=#FF3333;strokeWidth=1;fontSize=22;" parent="2" source="vertex:actor:5991ce42" target="vertex:lambda_function:arn:aws:lambda:eu-west-1:123456789012:function:producer-lambda" edge="2">
					<mxGeometry as="geometry"/>
				</mxCell>
				<mxCell id="label_same_entity_diff_elements_1:actor:5991ce42:to:lambda_function:arn:aws:lambda:eu-west-1:123456789012:function:producer-lambda" value="1: Put new file into S3 bucket&lt;BR&gt;First NOTE" style="edgeLabel;html=1;align=left;verticalAlign=middle;resizable=0;points=[];labelBackgroundColor=none;fontColor=#FF3333;fontStyle=0;fontSize=14;" parent="edge_same_entity_diff_elements_1:actor:5991ce42:to:lambda_function:arn:aws:lambda:eu-west-1:123456789012:function:producer-lambda" vertex="1" connectable="0">
					<mxGeometry relative="1" as="geometry">
						<mxPoint as="offset" x="-36" y="-22"/>
					</mxGeometry>
				</mxCell>
				<mxCell id="edge_same_entity_diff_elements_2:lambda_function:arn:aws:lambda:eu-west-1:123456789012:function:producer-lambda:to:s3:arn:aws:s3:::bucket_name/key_name" style="jettySize=auto;html=1;orthogonalLoop=1;edgeStyle=orthogonalEdgeStyle;curved=1;startArrow=oval;endArrow=classicThin;dashed=1;strokeColor=#FF3333;strokeWidth=1;fontSize=22;" parent="2" source="vertex:lambda_function:arn:aws:lambda:eu-west-1:123456789012:function:producer-lambda" target="vertex:s3:arn:aws:s3:::bucket_name/key_name" edge="2">
					<mxGeometry as="geometry"/>
				</mxCell>
				<mxCell id="label_same_entity_diff_elements_2:lambda_function:arn:aws:lambda:eu-west-1:123456789012:function:producer-lambda:to:s3:arn:aws:s3:::bucket_name/key_name" value="2: Put new file into S3 bucket&lt;BR&gt;Single line note on the left" style="edgeLabel;html=1;align=left;verticalAlign=middle;resizable=0;points=[];labelBackgroundColor=none;fontColor=#FF3333;fontStyle=0;fontSize=14;" parent="edge_same_entity_diff_elements_2:lambda_function:arn:aws:lambda:eu-west-1:123456789012:function:producer-lambda:to:s3:arn:aws:s3:::bucket_name/key_name" vertex="1" connectable="0">
					<mxGeometry relative="1" as="geometry">
						<mxPoint as="offset" x="-62" y="6"/>
					</mxGeometry>
				</mxCell>
				<mxCell id="edge_same_entity_diff_elements_3:actor:5991ce42:to:lambda_function:arn:aws:lambda:eu-west-1:123456789012:function:producer-lambda" style="jettySize=auto;html=1;orthogonalLoop=1;edgeStyle=orthogonalEdgeStyle;curved=1;startArrow=oval;endArrow=classicThin;dashed=1;strokeColor=#FF3333;strokeWidth=1;fontSize=22;" parent="2" source="vertex:actor:5991ce42" target="vertex:lambda_function:arn:aws:lambda:eu-west-1:123456789012:function:producer-lambda" edge="2">
					<mxGeometry as="geometry"/>
				</mxCell>
				<mxCell id="label_same_entity_diff_elements_3:actor:5991ce42:to:lambda_function:arn:aws:lambda:eu-west-1:123456789012:function:producer-lambda" value="3: Put new file into S3 bucket&lt;BR&gt;Second NOTE" style="edgeLabel;html=1;align=left;verticalAlign=middle;resizable=0;points=[];labelBackgroundColor=none;fontColor=#FF3333;fontStyle=0;fontSize=14;" parent="edge_same_entity_diff_elements_3:actor:5991ce42:to:lambda_function:arn:aws:lambda:eu-west-1:123456789012:function:producer-lambda" vertex="1" connectable="0">
					<mxGeometry relative="1" as="geometry">
						<mxPoint as="offset" x="94" y="30"/>
					</mxGeometry>
				</mxCell>
				<mxCell id="edge_same_entity_diff_elements_4:lambda_function:arn:aws:lambda:eu-west-1:123456789012:function:producer-lambda:to:sns:arn:aws:sns:eu-west-1:123456789012:internal.fifo" style="jettySize=auto;html=1;orthogonalLoop=1;edgeStyle=orthogonalEdgeStyle;curved=1;startArrow=oval;endArrow=classicThin;dashed=1;strokeColor=#FF3333;strokeWidth=1;fontSize=22;" parent="2" source="vertex:lambda_function:arn:aws:lambda:eu-west-1:123456789012:function:producer-lambda" target="vertex:sns:arn:aws:sns:eu-west-1:123456789012:internal.fifo" edge="2">
					<mxGeometry as="geometry"/>
				</mxCell>
				<mxCell id="label_same_entity_diff_elements_4:lambda_function:arn:aws:lambda:eu-west-1:123456789012:function:producer-lambda:to:sns:arn:aws:sns:eu-west-1:123456789012:internal.fifo" value="4: Send Event to SNS that file processing is finished&lt;BR&gt;multiline&lt;BR&gt;note&lt;BR&gt;added on the right" style="edgeLabel;html=1;align=left;verticalAlign=middle;resizable=0;points=[];labelBackgroundColor=none;fontColor=#FF3333;fontStyle=0;fontSize=14;" parent="edge_same_entity_diff_elements_4:lambda_function:arn:aws:lambda:eu-west-1:123456789012:function:producer-lambda:to:sns:arn:aws:sns:eu-west-1:123456789012:internal.fifo" vertex="1" connectable="0">
					<mxGeometry relative="1" as="geometry">
						<mxPoint as="offset" x="128" y="-74"/>
					</mxGeometry>
				</mxCell>
				<mxCell id="edge_same_entity_diff_elements_5:sns:arn:aws:sns:eu-west-1:123456789012:internal.fifo:to:sqs:arn:aws:sqs:eu-west-1:123456789012:int-eu-live-events.fifo" style="jettySize=auto;html=1;orthogonalLoop=1;edgeStyle=orthogonalEdgeStyle;curved=1;startArrow=oval;endArrow=classicThin;dashed=1;strokeColor=#FF3333;strokeWidth=1;fontSize=22;" parent="2" source="vertex:sns:arn:aws:sns:eu-west-1:123456789012:internal.fifo" target="vertex:sqs:arn:aws:sqs:eu-west-1:123456789012:int-eu-live-events.fifo" edge="2">
					<mxGeometry as="geometry"/>
				</mxCell>
				<mxCell id="label_same_entity_diff_elements_5:sns:arn:aws:sns:eu-west-1:123456789012:internal.fifo:to:sqs:arn:aws:sqs:eu-west-1:123456789012:int-eu-live-events.fifo" value="5: Fanout Event to SQS" style="edgeLabel;html=1;align=left;verticalAlign=middle;resizable=0;points=[];labelBackgroundColor=none;fontColor=#FF3333;fontStyle=0;fontSize=14;" parent="edge_same_entity_diff_elements_5:sns:arn:aws:sns:eu-west-1:123456789012:internal.fifo:to:sqs:arn:aws:sqs:eu-west-1:123456789012:int-eu-live-events.fifo" vertex="1" connectable="0">
					<mxGeometry relative="1" as="geometry">
						<mxPoint as="offset" x="81" y="221"/>
					</mxGeometry>
				</mxCell>
				<mxCell id="4" parent="0" value="same_entity_diff_elements2"/>
				<mxCell id="edge_same_entity_diff_elements2_1:actor:5991ce42:to:lambda_function:arn:aws:lambda:eu-west-1:123456789012:function:producer-lambda" style="jettySize=auto;html=1;orthogonalLoop=1;edgeStyle=orthogonalEdgeStyle;curved=1;startArrow=oval;endArrow=classicThin;dashed=1;strokeColor=#0A0CA4;strokeWidth=1;fontSize=22;" parent="4" source="vertex:actor:5991ce42" target="vertex:lambda_function:arn:aws:lambda:eu-west-1:123456789012:function:producer-lambda" edge="2">
					<mxGeometry as="geometry"/>
				</mxCell>
				<mxCell id="label_same_entity_diff_elements2_1:actor:5991ce42:to:lambda_function:arn:aws:lambda:eu-west-1:123456789012:function:producer-lambda" value="1: Put another file into S3 bucket" style="edgeLabel;html=1;align=left;verticalAlign=middle;resizable=0;points=[];labelBackgroundColor=none;fontColor=#0A0CA4;fontStyle=0;fontSize=14;" parent="edge_same_entity_diff_elements2_1:actor:5991ce42:to:lambda_function:arn:aws:lambda:eu-west-1:123456789012:function:producer-lambda" vertex="1" connectable="0">
					<mxGeometry relative="1" as="geometry">
						<mxPoint as="offset" x="-96" y="190"/>
					</mxGeometry>
				</mxCell>
				<mxCell id="edge_same_entity_diff_elements2_2:lambda_function:arn:aws:lambda:eu-west-1:123456789012:function:producer-lambda:to:s3:arn:aws:s3:::bucket_name/key_name" style="jettySize=auto;html=1;orthogonalLoop=1;edgeStyle=orthogonalEdgeStyle;curved=1;startArrow=oval;endArrow=classicThin;dashed=1;strokeColor=#0A0CA4;strokeWidth=1;fontSize=22;" parent="4" source="vertex:lambda_function:arn:aws:lambda:eu-west-1:123456789012:function:producer-lambda" target="vertex:s3:arn:aws:s3:::bucket_name/key_name" edge="2">
					<mxGeometry as="geometry"/>
				</mxCell>
				<mxCell id="label_same_entity_diff_elements2_2:lambda_function:arn:aws:lambda:eu-west-1:123456789012:function:producer-lambda:to:s3:arn:aws:s3:::bucket_name/key_name" value="2: Put another file into S3 bucket&lt;BR&gt;Single line note on the left" style="edgeLabel;html=1;align=left;verticalAlign=middle;resizable=0;points=[];labelBackgroundColor=none;fontColor=#0A0CA4;fontStyle=0;fontSize=14;" parent="edge_same_entity_diff_elements2_2:lambda_function:arn:aws:lambda:eu-west-1:123456789012:function:producer-lambda:to:s3:arn:aws:s3:::bucket_name/key_name" vertex="1" connectable="0">
					<mxGeometry relative="1" as="geometry">
						<mxPoint as="offset" x="178" y="136"/>
					</mxGeometry>
				</mxCell>
			</root>
		</mxGraphModel>
	</diagram>
</mxfile>